<svg id="svg7384" xmlns="http://www.w3.org/2000/svg" viewBox="0 0 16 15.76"><defs><style>.cls-1{fill:#fff;}</style></defs><title>1</title><g id="g1812"><path id="path2788" class="cls-1" d="M8.18,1a7,7,0,1,0,3.32.94A7,7,0,0,0,8.18,1ZM8,2A6,6,0,1,1,2,8,6,6,0,0,1,8,2Z" transform="translate(-0.01 -0.12)"/><path id="path2790" class="cls-1" d="M6.69.12V1.67a6.47,6.47,0,0,1,2.63,0V.12Zm-2.75,1-2,1.71L2.92,4a6.59,6.59,0,0,1,2-1.69Zm8.13,0-1,1.19.17.09A6.44,6.44,0,0,1,13.09,4l1-1.2ZM.46,5.34,0,7.94l1.52.26A6.39,6.39,0,0,1,2,5.61Zm15.08,0L14,5.61a6.42,6.42,0,0,1,.46,2.59L16,7.93ZM1.86,10l-1.35.78h0l1.33,2.27,1.34-.77A6.52,6.52,0,0,1,1.86,10Zm12.3,0a7,7,0,0,1-.54,1.22,6.75,6.75,0,0,1-.77,1.07l1.34.77,1.3-2.29ZM4.6,13.51,4.07,15l2.48.89.52-1.45a6.5,6.5,0,0,1-2.3-.8Zm6.82,0a6.67,6.67,0,0,1-2.48.9l.53,1.45L11.94,15Z" transform="translate(-0.01 -0.12)"/><path id="path2792" class="cls-1" d="M7.65,3a5,5,0,1,0,2.85.66A5,5,0,0,0,7.65,3ZM8,4A4,4,0,1,1,4,8,4,4,0,0,1,8,4Z" transform="translate(-0.01 -0.12)"/></g></svg>