<svg xmlns="http://www.w3.org/2000/svg" viewBox="0 0 50 50"><path fill="#231F20" d="M10.18 27.452l2.396.263a12.91 12.91 0 0 0 1.531 3.675l-1.462 1.819a1 1 0 0 0 .073 1.334l2.643 2.635c.36.36.932.391 1.33.073l1.832-1.462a12.975 12.975 0 0 0 3.591 1.5l.266 2.415a1 1 0 0 0 .994.891h3.737a1 1 0 0 0 .994-.89l.261-2.366c1.32-.309 2.57-.814 3.731-1.51l1.84 1.471a1 1 0 0 0 1.33-.073l2.644-2.635a1 1 0 0 0 .073-1.335l-1.45-1.8a12.904 12.904 0 0 0 1.577-3.754l2.287-.25a1 1 0 0 0 .892-.994v-3.726a1 1 0 0 0-.891-.994l-2.281-.25a12.946 12.946 0 0 0-1.573-3.767l1.439-1.789a1 1 0 0 0-.073-1.335l-2.644-2.635a1 1 0 0 0-1.33-.073l-1.821 1.456a12.983 12.983 0 0 0-3.751-1.521l-.26-2.34a1.001 1.001 0 0 0-.994-.89h-3.737a1 1 0 0 0-.994.89l-.265 2.389a12.962 12.962 0 0 0-3.582 1.495l-1.851-1.478a1 1 0 0 0-1.33.073l-2.644 2.635a1 1 0 0 0-.073 1.335l1.476 1.835a12.898 12.898 0 0 0-1.542 3.707l-2.389.263a1 1 0 0 0-.891.994v3.726a1 1 0 0 0 .891.993zm1.109-3.825l2.216-.244a1 1 0 0 0 .874-.813 10.97 10.97 0 0 1 1.786-4.294 1 1 0 0 0-.042-1.196l-1.366-1.7 1.374-1.37 1.715 1.369c.343.275.826.291 1.189.044a11.044 11.044 0 0 1 4.183-1.746c.431-.083.757-.436.806-.872l.245-2.21h1.946l.241 2.174a1 1 0 0 0 .822.875c1.568.274 3.028.866 4.339 1.758a.998.998 0 0 0 1.187-.045l1.684-1.346 1.374 1.369-1.333 1.656a1.001 1.001 0 0 0-.04 1.2 10.954 10.954 0 0 1 1.817 4.348.999.999 0 0 0 .874.814l2.109.231v1.933l-2.113.231a1 1 0 0 0-.875.813 10.94 10.94 0 0 1-1.822 4.335c-.256.365-.24.855.039 1.202l1.344 1.668-1.374 1.369-1.701-1.36a1.001 1.001 0 0 0-1.186-.046 11.03 11.03 0 0 1-4.321 1.746 1 1 0 0 0-.822.875l-.242 2.2H24.27l-.246-2.236a1.001 1.001 0 0 0-.806-.873 11.056 11.056 0 0 1-4.19-1.751.996.996 0 0 0-1.19.043l-1.696 1.354-1.374-1.37 1.354-1.684c.277-.345.295-.832.043-1.196a10.947 10.947 0 0 1-1.778-4.265 1.002 1.002 0 0 0-.874-.812l-2.221-.244v-1.934z"/><path fill="#231F20" d="M25.289 28.586c2.207 0 4.002-1.791 4.002-3.992a4.001 4.001 0 0 0-8.003 0 4.001 4.001 0 0 0 4.001 3.992zm0-5.983c1.104 0 2.002.894 2.002 1.992s-.898 1.992-2.002 1.992-2.001-.894-2.001-1.992a2 2 0 0 1 2.001-1.992z"/></svg>